<?xml version="1.0" encoding="UTF-8"?>
<svg id="Camada_2" data-name="Camada 2" xmlns="http://www.w3.org/2000/svg" viewBox="0 0 52.41 52.41">
  <defs>
    <style>
      .cls-1 {
        fill: #d2f9ec;
        stroke-width: 0px;
      }
    </style>
  </defs>
  <g id="Camada_1-2" data-name="Camada 1">
    <g id="Camada_5" data-name="Camada 5">
      <g id="LOGO">
        <path class="cls-1" d="m26.21,38.82c-6.96,0-12.62-5.66-12.62-12.62s5.66-12.62,12.62-12.62,12.62,5.66,12.62,12.62-5.66,12.62-12.62,12.62Zm0-24.24c-6.41,0-11.62,5.21-11.62,11.62s5.21,11.62,11.62,11.62,11.62-5.21,11.62-11.62-5.21-11.62-11.62-11.62Z"/>
        <path class="cls-1" d="m26.21,44.7c-10.2,0-18.49-8.3-18.49-18.49S16.01,7.71,26.21,7.71s18.49,8.3,18.49,18.49-8.3,18.49-18.49,18.49Zm0-35.99c-9.65,0-17.49,7.85-17.49,17.49s7.85,17.49,17.49,17.49,17.49-7.85,17.49-17.49-7.85-17.49-17.49-17.49Z"/>
        <path class="cls-1" d="m26.21,52.41C11.76,52.41,0,40.66,0,26.21S11.76,0,26.21,0s26.21,11.76,26.21,26.21-11.76,26.21-26.21,26.21Zm0-51.41C12.31,1,1,12.31,1,26.21s11.31,25.21,25.21,25.21,25.21-11.31,25.21-25.21S40.1,1,26.21,1Z"/>
        <path class="cls-1" d="m52.41,52.41H0V0h52.41v52.41Zm-51.41-1h50.41V1H1v50.41Z"/>
        <rect class="cls-1" x="15.24" y="25.71" width="21.93" height="1"/>
        <rect class="cls-1" x="25.71" y="15.06" width="1" height="22.3"/>
        <rect class="cls-1" x="25.71" y="18.26" width="1" height="15.9" transform="translate(-10.85 26.21) rotate(-45)"/>
        <rect class="cls-1" x="18.26" y="25.71" width="15.9" height="1" transform="translate(-10.85 26.21) rotate(-45)"/>
        <path class="cls-1" d="m26.21,38.15l-11.95-11.95,11.95-11.95,11.95,11.95-11.95,11.95Zm-10.53-11.95l10.53,10.53,10.53-10.53-10.53-10.53-10.53,10.53Z"/>
        <path class="cls-1" d="m26.21,44.16L8.26,26.21,26.21,8.26l17.95,17.95-17.95,17.95ZM9.67,26.21l16.54,16.54,16.54-16.54L26.21,9.67,9.67,26.21Z"/>
        <path class="cls-1" d="m26.21,52.26L.15,26.21,26.21.15l26.05,26.05-26.05,26.05ZM1.57,26.21l24.64,24.64,24.64-24.64L26.21,1.57,1.57,26.21Z"/>
      </g>
    </g>
  </g>
</svg>